<svg xmlns="http://www.w3.org/2000/svg" version="1.1" xmlns:xlink="http://www.w3.org/1999/xlink" xmlns:svgjs="http://svgjs.dev/svgjs" width="1920" height="735" preserveAspectRatio="none" viewBox="0 0 1920 735"><g mask="url(&quot;#SvgjsMask1207&quot;)" fill="none"><path d="M219.57 -31.48L310.51 21.02L310.51 126.02L219.57 178.52L128.64 126.02L128.64 21.02zM401.44 598.52L492.38 651.02L492.38 756.02L401.44 808.52L310.51 756.02L310.51 651.02zM947.05 598.52L1037.99 651.02L1037.99 756.02L947.05 808.52L856.12 756.02L856.12 651.02zM1219.86 126.02L1310.79 178.52L1310.79 283.52L1219.86 336.02L1128.92 283.52L1128.92 178.52zM1219.86 756.02L1310.79 808.52L1310.79 913.52L1219.86 966.02L1128.92 913.52L1128.92 808.52zM1492.66 -31.48L1583.6 21.02L1583.6 126.02L1492.66 178.52L1401.73 126.02L1401.73 21.02zM1583.6 441.02L1674.53 493.52L1674.53 598.52L1583.6 651.02L1492.66 598.52L1492.66 493.52zM1492.66 598.52L1583.6 651.02L1583.6 756.02L1492.66 808.52L1401.73 756.02L1401.73 651.02zM1856.4 -31.48L1947.34 21.02L1947.34 126.02L1856.4 178.52L1765.47 126.02L1765.47 21.02zM1856.4 283.52L1947.34 336.02L1947.34 441.02L1856.4 493.52L1765.47 441.02L1765.47 336.02z" stroke="url(&quot;#SvgjsLinearGradient1208&quot;)" stroke-width="2"></path><path d="M209.07 -31.48 a10.5 10.5 0 1 0 21 0 a10.5 10.5 0 1 0 -21 0zM300.01 21.02 a10.5 10.5 0 1 0 21 0 a10.5 10.5 0 1 0 -21 0zM300.01 126.02 a10.5 10.5 0 1 0 21 0 a10.5 10.5 0 1 0 -21 0zM209.07 178.52 a10.5 10.5 0 1 0 21 0 a10.5 10.5 0 1 0 -21 0zM118.14 126.02 a10.5 10.5 0 1 0 21 0 a10.5 10.5 0 1 0 -21 0zM118.14 21.02 a10.5 10.5 0 1 0 21 0 a10.5 10.5 0 1 0 -21 0zM390.94 598.52 a10.5 10.5 0 1 0 21 0 a10.5 10.5 0 1 0 -21 0zM481.88 651.02 a10.5 10.5 0 1 0 21 0 a10.5 10.5 0 1 0 -21 0zM481.88 756.02 a10.5 10.5 0 1 0 21 0 a10.5 10.5 0 1 0 -21 0zM390.94 808.52 a10.5 10.5 0 1 0 21 0 a10.5 10.5 0 1 0 -21 0zM300.01 756.02 a10.5 10.5 0 1 0 21 0 a10.5 10.5 0 1 0 -21 0zM300.01 651.02 a10.5 10.5 0 1 0 21 0 a10.5 10.5 0 1 0 -21 0zM936.55 598.52 a10.5 10.5 0 1 0 21 0 a10.5 10.5 0 1 0 -21 0zM1027.49 651.02 a10.5 10.5 0 1 0 21 0 a10.5 10.5 0 1 0 -21 0zM1027.49 756.02 a10.5 10.5 0 1 0 21 0 a10.5 10.5 0 1 0 -21 0zM936.55 808.52 a10.5 10.5 0 1 0 21 0 a10.5 10.5 0 1 0 -21 0zM845.62 756.02 a10.5 10.5 0 1 0 21 0 a10.5 10.5 0 1 0 -21 0zM845.62 651.02 a10.5 10.5 0 1 0 21 0 a10.5 10.5 0 1 0 -21 0zM1209.36 126.02 a10.5 10.5 0 1 0 21 0 a10.5 10.5 0 1 0 -21 0zM1300.29 178.52 a10.5 10.5 0 1 0 21 0 a10.5 10.5 0 1 0 -21 0zM1300.29 283.52 a10.5 10.5 0 1 0 21 0 a10.5 10.5 0 1 0 -21 0zM1209.36 336.02 a10.5 10.5 0 1 0 21 0 a10.5 10.5 0 1 0 -21 0zM1118.42 283.52 a10.5 10.5 0 1 0 21 0 a10.5 10.5 0 1 0 -21 0zM1118.42 178.52 a10.5 10.5 0 1 0 21 0 a10.5 10.5 0 1 0 -21 0zM1209.36 756.02 a10.5 10.5 0 1 0 21 0 a10.5 10.5 0 1 0 -21 0zM1300.29 808.52 a10.5 10.5 0 1 0 21 0 a10.5 10.5 0 1 0 -21 0zM1300.29 913.52 a10.5 10.5 0 1 0 21 0 a10.5 10.5 0 1 0 -21 0zM1209.36 966.02 a10.5 10.5 0 1 0 21 0 a10.5 10.5 0 1 0 -21 0zM1118.42 913.52 a10.5 10.5 0 1 0 21 0 a10.5 10.5 0 1 0 -21 0zM1118.42 808.52 a10.5 10.5 0 1 0 21 0 a10.5 10.5 0 1 0 -21 0zM1482.16 -31.48 a10.5 10.5 0 1 0 21 0 a10.5 10.5 0 1 0 -21 0zM1573.1 21.02 a10.5 10.5 0 1 0 21 0 a10.5 10.5 0 1 0 -21 0zM1573.1 126.02 a10.5 10.5 0 1 0 21 0 a10.5 10.5 0 1 0 -21 0zM1482.16 178.52 a10.5 10.5 0 1 0 21 0 a10.5 10.5 0 1 0 -21 0zM1391.23 126.02 a10.5 10.5 0 1 0 21 0 a10.5 10.5 0 1 0 -21 0zM1391.23 21.02 a10.5 10.5 0 1 0 21 0 a10.5 10.5 0 1 0 -21 0zM1573.1 441.02 a10.5 10.5 0 1 0 21 0 a10.5 10.5 0 1 0 -21 0zM1664.03 493.52 a10.5 10.5 0 1 0 21 0 a10.5 10.5 0 1 0 -21 0zM1664.03 598.52 a10.5 10.5 0 1 0 21 0 a10.5 10.5 0 1 0 -21 0zM1573.1 651.02 a10.5 10.5 0 1 0 21 0 a10.5 10.5 0 1 0 -21 0zM1482.16 598.52 a10.5 10.5 0 1 0 21 0 a10.5 10.5 0 1 0 -21 0zM1482.16 493.52 a10.5 10.5 0 1 0 21 0 a10.5 10.5 0 1 0 -21 0zM1573.1 756.02 a10.5 10.5 0 1 0 21 0 a10.5 10.5 0 1 0 -21 0zM1482.16 808.52 a10.5 10.5 0 1 0 21 0 a10.5 10.5 0 1 0 -21 0zM1391.23 756.02 a10.5 10.5 0 1 0 21 0 a10.5 10.5 0 1 0 -21 0zM1391.23 651.02 a10.5 10.5 0 1 0 21 0 a10.5 10.5 0 1 0 -21 0zM1845.9 -31.48 a10.5 10.5 0 1 0 21 0 a10.5 10.5 0 1 0 -21 0zM1936.84 21.02 a10.5 10.5 0 1 0 21 0 a10.5 10.5 0 1 0 -21 0zM1936.84 126.02 a10.5 10.5 0 1 0 21 0 a10.5 10.5 0 1 0 -21 0zM1845.9 178.52 a10.5 10.5 0 1 0 21 0 a10.5 10.5 0 1 0 -21 0zM1754.97 126.02 a10.5 10.5 0 1 0 21 0 a10.5 10.5 0 1 0 -21 0zM1754.97 21.02 a10.5 10.5 0 1 0 21 0 a10.5 10.5 0 1 0 -21 0zM1845.9 283.52 a10.5 10.5 0 1 0 21 0 a10.5 10.5 0 1 0 -21 0zM1936.84 336.02 a10.5 10.5 0 1 0 21 0 a10.5 10.5 0 1 0 -21 0zM1936.84 441.02 a10.5 10.5 0 1 0 21 0 a10.5 10.5 0 1 0 -21 0zM1845.9 493.52 a10.5 10.5 0 1 0 21 0 a10.5 10.5 0 1 0 -21 0zM1754.97 441.02 a10.5 10.5 0 1 0 21 0 a10.5 10.5 0 1 0 -21 0zM1754.97 336.02 a10.5 10.5 0 1 0 21 0 a10.5 10.5 0 1 0 -21 0z" fill="url(&quot;#SvgjsLinearGradient1208&quot;)"></path><path d="M119.64 382.77L245.22 455.27L245.22 600.27L119.64 672.77L-5.94 600.27L-5.94 455.27zM1375.41 -52.23L1500.99 20.27L1500.99 165.27L1375.41 237.77L1249.84 165.27L1249.84 20.27zM1375.41 382.77L1500.99 455.27L1500.99 600.27L1375.41 672.77L1249.84 600.27L1249.84 455.27zM1626.57 -52.23L1752.14 20.27L1752.14 165.27L1626.57 237.77L1500.99 165.27L1500.99 20.27zM1752.14 600.27L1877.72 672.77L1877.72 817.77L1752.14 890.27L1626.57 817.77L1626.57 672.77z" stroke="rgba(6, 80, 156, 0.93)" stroke-width="2"></path></g><defs><mask id="SvgjsMask1207"><rect width="1920" height="735" fill="#ffffff"></rect></mask><linearGradient x1="296.256" y1="-296.2785" x2="1623.7439999999997" y2="1031.2785000000001" gradientUnits="userSpaceOnUse" id="SvgjsLinearGradient1208"><stop stop-color="rgba(158, 0, 129, 1)" offset="0"></stop><stop stop-color="#03305d" offset="1"></stop></linearGradient></defs></svg>