<svg xmlns="http://www.w3.org/2000/svg" version="1.1" xmlns:xlink="http://www.w3.org/1999/xlink" xmlns:svgjs="http://svgjs.dev/svgjs" width="1920" height="735" preserveAspectRatio="none" viewBox="0 0 1920 735"><g mask="url(&quot;#SvgjsMask1241&quot;)" fill="none"><path d="M24.64 279.79L115.58 332.29L115.58 437.29L24.64 489.79L-66.3 437.29L-66.3 332.29zM24.64 594.79L115.58 647.29L115.58 752.29L24.64 804.79L-66.3 752.29L-66.3 647.29zM206.51 594.79L297.45 647.29L297.45 752.29L206.51 804.79L115.58 752.29L115.58 647.29zM388.38 -35.21L479.32 17.29L479.32 122.29L388.38 174.79L297.45 122.29L297.45 17.29zM388.38 279.79L479.32 332.29L479.32 437.29L388.38 489.79L297.45 437.29L297.45 332.29zM479.32 437.29L570.25 489.79L570.25 594.79L479.32 647.29L388.38 594.79L388.38 489.79zM570.25 279.79L661.19 332.29L661.19 437.29L570.25 489.79L479.32 437.29L479.32 332.29zM933.99 -35.21L1024.93 17.29L1024.93 122.29L933.99 174.79L843.06 122.29L843.06 17.29zM1024.93 122.29L1115.86 174.79L1115.86 279.79L1024.93 332.29L933.99 279.79L933.99 174.79zM1024.93 752.29L1115.86 804.79L1115.86 909.79L1024.93 962.29L933.99 909.79L933.99 804.79zM1206.8 122.29L1297.73 174.79L1297.73 279.79L1206.8 332.29L1115.86 279.79L1115.86 174.79zM1206.8 437.29L1297.73 489.79L1297.73 594.79L1206.8 647.29L1115.86 594.79L1115.86 489.79zM1297.73 -35.21L1388.67 17.29L1388.67 122.29L1297.73 174.79L1206.8 122.29L1206.8 17.29zM1297.73 279.79L1388.67 332.29L1388.67 437.29L1297.73 489.79L1206.8 437.29L1206.8 332.29zM1297.73 594.79L1388.67 647.29L1388.67 752.29L1297.73 804.79L1206.8 752.29L1206.8 647.29zM1388.67 752.29L1479.6 804.79L1479.6 909.79L1388.67 962.29L1297.73 909.79L1297.73 804.79zM1479.6 -35.21L1570.54 17.29L1570.54 122.29L1479.6 174.79L1388.67 122.29L1388.67 17.29zM1661.47 279.79L1752.41 332.29L1752.41 437.29L1661.47 489.79L1570.54 437.29L1570.54 332.29zM1752.41 752.29L1843.35 804.79L1843.35 909.79L1752.41 962.29L1661.47 909.79L1661.47 804.79zM1934.28 437.29L2025.22 489.79L2025.22 594.79L1934.28 647.29L1843.35 594.79L1843.35 489.79zM1843.35 594.79L1934.28 647.29L1934.28 752.29L1843.35 804.79L1752.41 752.29L1752.41 647.29z" stroke="url(&quot;#SvgjsLinearGradient1242&quot;)" stroke-width="2"></path><path d="M14.14 279.79 a10.5 10.5 0 1 0 21 0 a10.5 10.5 0 1 0 -21 0zM105.08 332.29 a10.5 10.5 0 1 0 21 0 a10.5 10.5 0 1 0 -21 0zM105.08 437.29 a10.5 10.5 0 1 0 21 0 a10.5 10.5 0 1 0 -21 0zM14.14 489.79 a10.5 10.5 0 1 0 21 0 a10.5 10.5 0 1 0 -21 0zM-76.8 437.29 a10.5 10.5 0 1 0 21 0 a10.5 10.5 0 1 0 -21 0zM-76.8 332.29 a10.5 10.5 0 1 0 21 0 a10.5 10.5 0 1 0 -21 0zM14.14 594.79 a10.5 10.5 0 1 0 21 0 a10.5 10.5 0 1 0 -21 0zM105.08 647.29 a10.5 10.5 0 1 0 21 0 a10.5 10.5 0 1 0 -21 0zM105.08 752.29 a10.5 10.5 0 1 0 21 0 a10.5 10.5 0 1 0 -21 0zM14.14 804.79 a10.5 10.5 0 1 0 21 0 a10.5 10.5 0 1 0 -21 0zM-76.8 752.29 a10.5 10.5 0 1 0 21 0 a10.5 10.5 0 1 0 -21 0zM-76.8 647.29 a10.5 10.5 0 1 0 21 0 a10.5 10.5 0 1 0 -21 0zM196.01 594.79 a10.5 10.5 0 1 0 21 0 a10.5 10.5 0 1 0 -21 0zM286.95 647.29 a10.5 10.5 0 1 0 21 0 a10.5 10.5 0 1 0 -21 0zM286.95 752.29 a10.5 10.5 0 1 0 21 0 a10.5 10.5 0 1 0 -21 0zM196.01 804.79 a10.5 10.5 0 1 0 21 0 a10.5 10.5 0 1 0 -21 0zM377.88 -35.21 a10.5 10.5 0 1 0 21 0 a10.5 10.5 0 1 0 -21 0zM468.82 17.29 a10.5 10.5 0 1 0 21 0 a10.5 10.5 0 1 0 -21 0zM468.82 122.29 a10.5 10.5 0 1 0 21 0 a10.5 10.5 0 1 0 -21 0zM377.88 174.79 a10.5 10.5 0 1 0 21 0 a10.5 10.5 0 1 0 -21 0zM286.95 122.29 a10.5 10.5 0 1 0 21 0 a10.5 10.5 0 1 0 -21 0zM286.95 17.29 a10.5 10.5 0 1 0 21 0 a10.5 10.5 0 1 0 -21 0zM377.88 279.79 a10.5 10.5 0 1 0 21 0 a10.5 10.5 0 1 0 -21 0zM468.82 332.29 a10.5 10.5 0 1 0 21 0 a10.5 10.5 0 1 0 -21 0zM468.82 437.29 a10.5 10.5 0 1 0 21 0 a10.5 10.5 0 1 0 -21 0zM377.88 489.79 a10.5 10.5 0 1 0 21 0 a10.5 10.5 0 1 0 -21 0zM286.95 437.29 a10.5 10.5 0 1 0 21 0 a10.5 10.5 0 1 0 -21 0zM286.95 332.29 a10.5 10.5 0 1 0 21 0 a10.5 10.5 0 1 0 -21 0zM559.75 489.79 a10.5 10.5 0 1 0 21 0 a10.5 10.5 0 1 0 -21 0zM559.75 594.79 a10.5 10.5 0 1 0 21 0 a10.5 10.5 0 1 0 -21 0zM468.82 647.29 a10.5 10.5 0 1 0 21 0 a10.5 10.5 0 1 0 -21 0zM377.88 594.79 a10.5 10.5 0 1 0 21 0 a10.5 10.5 0 1 0 -21 0zM559.75 279.79 a10.5 10.5 0 1 0 21 0 a10.5 10.5 0 1 0 -21 0zM650.69 332.29 a10.5 10.5 0 1 0 21 0 a10.5 10.5 0 1 0 -21 0zM650.69 437.29 a10.5 10.5 0 1 0 21 0 a10.5 10.5 0 1 0 -21 0zM923.49 -35.21 a10.5 10.5 0 1 0 21 0 a10.5 10.5 0 1 0 -21 0zM1014.43 17.29 a10.5 10.5 0 1 0 21 0 a10.5 10.5 0 1 0 -21 0zM1014.43 122.29 a10.5 10.5 0 1 0 21 0 a10.5 10.5 0 1 0 -21 0zM923.49 174.79 a10.5 10.5 0 1 0 21 0 a10.5 10.5 0 1 0 -21 0zM832.56 122.29 a10.5 10.5 0 1 0 21 0 a10.5 10.5 0 1 0 -21 0zM832.56 17.29 a10.5 10.5 0 1 0 21 0 a10.5 10.5 0 1 0 -21 0zM1105.36 174.79 a10.5 10.5 0 1 0 21 0 a10.5 10.5 0 1 0 -21 0zM1105.36 279.79 a10.5 10.5 0 1 0 21 0 a10.5 10.5 0 1 0 -21 0zM1014.43 332.29 a10.5 10.5 0 1 0 21 0 a10.5 10.5 0 1 0 -21 0zM923.49 279.79 a10.5 10.5 0 1 0 21 0 a10.5 10.5 0 1 0 -21 0zM1014.43 752.29 a10.5 10.5 0 1 0 21 0 a10.5 10.5 0 1 0 -21 0zM1105.36 804.79 a10.5 10.5 0 1 0 21 0 a10.5 10.5 0 1 0 -21 0zM1105.36 909.79 a10.5 10.5 0 1 0 21 0 a10.5 10.5 0 1 0 -21 0zM1014.43 962.29 a10.5 10.5 0 1 0 21 0 a10.5 10.5 0 1 0 -21 0zM923.49 909.79 a10.5 10.5 0 1 0 21 0 a10.5 10.5 0 1 0 -21 0zM923.49 804.79 a10.5 10.5 0 1 0 21 0 a10.5 10.5 0 1 0 -21 0zM1196.3 122.29 a10.5 10.5 0 1 0 21 0 a10.5 10.5 0 1 0 -21 0zM1287.23 174.79 a10.5 10.5 0 1 0 21 0 a10.5 10.5 0 1 0 -21 0zM1287.23 279.79 a10.5 10.5 0 1 0 21 0 a10.5 10.5 0 1 0 -21 0zM1196.3 332.29 a10.5 10.5 0 1 0 21 0 a10.5 10.5 0 1 0 -21 0zM1196.3 437.29 a10.5 10.5 0 1 0 21 0 a10.5 10.5 0 1 0 -21 0zM1287.23 489.79 a10.5 10.5 0 1 0 21 0 a10.5 10.5 0 1 0 -21 0zM1287.23 594.79 a10.5 10.5 0 1 0 21 0 a10.5 10.5 0 1 0 -21 0zM1196.3 647.29 a10.5 10.5 0 1 0 21 0 a10.5 10.5 0 1 0 -21 0zM1105.36 594.79 a10.5 10.5 0 1 0 21 0 a10.5 10.5 0 1 0 -21 0zM1105.36 489.79 a10.5 10.5 0 1 0 21 0 a10.5 10.5 0 1 0 -21 0zM1287.23 -35.21 a10.5 10.5 0 1 0 21 0 a10.5 10.5 0 1 0 -21 0zM1378.17 17.29 a10.5 10.5 0 1 0 21 0 a10.5 10.5 0 1 0 -21 0zM1378.17 122.29 a10.5 10.5 0 1 0 21 0 a10.5 10.5 0 1 0 -21 0zM1196.3 17.29 a10.5 10.5 0 1 0 21 0 a10.5 10.5 0 1 0 -21 0zM1378.17 332.29 a10.5 10.5 0 1 0 21 0 a10.5 10.5 0 1 0 -21 0zM1378.17 437.29 a10.5 10.5 0 1 0 21 0 a10.5 10.5 0 1 0 -21 0zM1378.17 647.29 a10.5 10.5 0 1 0 21 0 a10.5 10.5 0 1 0 -21 0zM1378.17 752.29 a10.5 10.5 0 1 0 21 0 a10.5 10.5 0 1 0 -21 0zM1287.23 804.79 a10.5 10.5 0 1 0 21 0 a10.5 10.5 0 1 0 -21 0zM1196.3 752.29 a10.5 10.5 0 1 0 21 0 a10.5 10.5 0 1 0 -21 0zM1469.1 804.79 a10.5 10.5 0 1 0 21 0 a10.5 10.5 0 1 0 -21 0zM1469.1 909.79 a10.5 10.5 0 1 0 21 0 a10.5 10.5 0 1 0 -21 0zM1378.17 962.29 a10.5 10.5 0 1 0 21 0 a10.5 10.5 0 1 0 -21 0zM1287.23 909.79 a10.5 10.5 0 1 0 21 0 a10.5 10.5 0 1 0 -21 0zM1469.1 -35.21 a10.5 10.5 0 1 0 21 0 a10.5 10.5 0 1 0 -21 0zM1560.04 17.29 a10.5 10.5 0 1 0 21 0 a10.5 10.5 0 1 0 -21 0zM1560.04 122.29 a10.5 10.5 0 1 0 21 0 a10.5 10.5 0 1 0 -21 0zM1469.1 174.79 a10.5 10.5 0 1 0 21 0 a10.5 10.5 0 1 0 -21 0zM1650.97 279.79 a10.5 10.5 0 1 0 21 0 a10.5 10.5 0 1 0 -21 0zM1741.91 332.29 a10.5 10.5 0 1 0 21 0 a10.5 10.5 0 1 0 -21 0zM1741.91 437.29 a10.5 10.5 0 1 0 21 0 a10.5 10.5 0 1 0 -21 0zM1650.97 489.79 a10.5 10.5 0 1 0 21 0 a10.5 10.5 0 1 0 -21 0zM1560.04 437.29 a10.5 10.5 0 1 0 21 0 a10.5 10.5 0 1 0 -21 0zM1560.04 332.29 a10.5 10.5 0 1 0 21 0 a10.5 10.5 0 1 0 -21 0zM1741.91 752.29 a10.5 10.5 0 1 0 21 0 a10.5 10.5 0 1 0 -21 0zM1832.85 804.79 a10.5 10.5 0 1 0 21 0 a10.5 10.5 0 1 0 -21 0zM1832.85 909.79 a10.5 10.5 0 1 0 21 0 a10.5 10.5 0 1 0 -21 0zM1741.91 962.29 a10.5 10.5 0 1 0 21 0 a10.5 10.5 0 1 0 -21 0zM1650.97 909.79 a10.5 10.5 0 1 0 21 0 a10.5 10.5 0 1 0 -21 0zM1650.97 804.79 a10.5 10.5 0 1 0 21 0 a10.5 10.5 0 1 0 -21 0zM1923.78 437.29 a10.5 10.5 0 1 0 21 0 a10.5 10.5 0 1 0 -21 0zM2014.72 489.79 a10.5 10.5 0 1 0 21 0 a10.5 10.5 0 1 0 -21 0zM2014.72 594.79 a10.5 10.5 0 1 0 21 0 a10.5 10.5 0 1 0 -21 0zM1923.78 647.29 a10.5 10.5 0 1 0 21 0 a10.5 10.5 0 1 0 -21 0zM1832.85 594.79 a10.5 10.5 0 1 0 21 0 a10.5 10.5 0 1 0 -21 0zM1832.85 489.79 a10.5 10.5 0 1 0 21 0 a10.5 10.5 0 1 0 -21 0zM1923.78 752.29 a10.5 10.5 0 1 0 21 0 a10.5 10.5 0 1 0 -21 0zM1741.91 647.29 a10.5 10.5 0 1 0 21 0 a10.5 10.5 0 1 0 -21 0z" fill="url(&quot;#SvgjsLinearGradient1242&quot;)"></path><path d="M688.72 122.67L814.29 195.17L814.29 340.17L688.72 412.67L563.14 340.17L563.14 195.17zM939.87 557.67L1065.45 630.17L1065.45 775.17L939.87 847.67L814.29 775.17L814.29 630.17zM1191.03 122.67L1316.6 195.17L1316.6 340.17L1191.03 412.67L1065.45 340.17L1065.45 195.17zM1316.6 340.17L1442.18 412.67L1442.18 557.67L1316.6 630.17L1191.03 557.67L1191.03 412.67zM1442.18 557.67L1567.76 630.17L1567.76 775.17L1442.18 847.67L1316.6 775.17L1316.6 630.17zM1693.33 122.67L1818.91 195.17L1818.91 340.17L1693.33 412.67L1567.76 340.17L1567.76 195.17zM1818.91 340.17L1944.49 412.67L1944.49 557.67L1818.91 630.17L1693.33 557.67L1693.33 412.67z" stroke="rgba(6, 80, 156, 0.93)" stroke-width="2"></path></g><defs><mask id="SvgjsMask1241"><rect width="1920" height="735" fill="#ffffff"></rect></mask><linearGradient x1="296.256" y1="-296.2785" x2="1623.7439999999997" y2="1031.2785000000001" gradientUnits="userSpaceOnUse" id="SvgjsLinearGradient1242"><stop stop-color="rgba(158, 0, 129, 1)" offset="0"></stop><stop stop-color="#03305d" offset="1"></stop></linearGradient></defs></svg>