<svg xmlns="http://www.w3.org/2000/svg" version="1.1" xmlns:xlink="http://www.w3.org/1999/xlink" xmlns:svgjs="http://svgjs.dev/svgjs" width="1800" height="750" preserveAspectRatio="none" viewBox="0 0 1800 750"><g mask="url(&quot;#SvgjsMask1060&quot;)" fill="none"><path d="M-58.17 536.06L-58.17 536.06" stroke="#132e65" stroke-width="1.5"></path><path d="M-58.17 536.06L65.42 521.82" stroke="#132e65" stroke-width="1.5"></path><path d="M-58.17 536.06L-94.54 708.09" stroke="#132e65" stroke-width="1.5"></path><path d="M-94.54 708.09L-94.54 708.09" stroke="#132e65" stroke-width="1.5"></path><path d="M-94.54 708.09L-70.88 821.16" stroke="#132e65" stroke-width="1.5"></path><path d="M-94.54 708.09L52.16 706.95" stroke="#132e65" stroke-width="1.5"></path><path d="M-70.88 821.16L-70.88 821.16" stroke="#132e65" stroke-width="1.5"></path><path d="M-70.88 821.16L49.59 789.78" stroke="#132e65" stroke-width="1.5"></path><path d="M65.42 521.82L65.42 521.82" stroke="#132e65" stroke-width="1.5"></path><path d="M65.42 521.82L235.62 530.81" stroke="#132e65" stroke-width="1.5"></path><path d="M52.16 706.95L52.16 706.95" stroke="#132e65" stroke-width="1.5"></path><path d="M52.16 706.95L49.59 789.78" stroke="#132e65" stroke-width="1.5"></path><path d="M49.59 789.78L49.59 789.78" stroke="#132e65" stroke-width="1.5"></path><path d="M49.59 789.78L212.99 793.27" stroke="#132e65" stroke-width="1.5"></path><path d="M235.62 530.81L235.62 530.81" stroke="#132e65" stroke-width="1.5"></path><path d="M235.62 530.81L366.23 501.94" stroke="#132e65" stroke-width="1.5"></path><path d="M235.62 530.81L204.87 691.38" stroke="#132e65" stroke-width="1.5"></path><path d="M204.87 691.38L204.87 691.38" stroke="#132e65" stroke-width="1.5"></path><path d="M204.87 691.38L212.99 793.27" stroke="#132e65" stroke-width="1.5"></path><path d="M204.87 691.38L52.16 706.95" stroke="#132e65" stroke-width="1.5"></path><path d="M204.87 691.38L49.59 789.78" stroke="#132e65" stroke-width="1.5"></path><path d="M204.87 691.38L403.05 660.01" stroke="#132e65" stroke-width="1.5"></path><path d="M212.99 793.27L212.99 793.27" stroke="#132e65" stroke-width="1.5"></path><path d="M212.99 793.27L353.61 858.82" stroke="#132e65" stroke-width="1.5"></path><path d="M212.99 793.27L52.16 706.95" stroke="#132e65" stroke-width="1.5"></path><path d="M212.99 793.27L403.05 660.01" stroke="#132e65" stroke-width="1.5"></path><path d="M366.23 501.94L366.23 501.94" stroke="#132e65" stroke-width="1.5"></path><path d="M366.23 501.94L403.05 660.01" stroke="#132e65" stroke-width="1.5"></path><path d="M366.23 501.94L529.06 497.15" stroke="#132e65" stroke-width="1.5"></path><path d="M366.23 501.94L512.75 674.63" stroke="#132e65" stroke-width="1.5"></path><path d="M366.23 501.94L204.87 691.38" stroke="#132e65" stroke-width="1.5"></path><path d="M403.05 660.01L403.05 660.01" stroke="#132e65" stroke-width="1.5"></path><path d="M403.05 660.01L512.75 674.63" stroke="#132e65" stroke-width="1.5"></path><path d="M403.05 660.01L353.61 858.82" stroke="#132e65" stroke-width="1.5"></path><path d="M353.61 858.82L353.61 858.82" stroke="#132e65" stroke-width="1.5"></path><path d="M353.61 858.82L495.83 844.18" stroke="#132e65" stroke-width="1.5"></path><path d="M353.61 858.82L204.87 691.38" stroke="#132e65" stroke-width="1.5"></path><path d="M529.06 497.15L529.06 497.15" stroke="#132e65" stroke-width="1.5"></path><path d="M529.06 497.15L673.1 408.85" stroke="#132e65" stroke-width="1.5"></path><path d="M529.06 497.15L512.75 674.63" stroke="#132e65" stroke-width="1.5"></path><path d="M512.75 674.63L512.75 674.63" stroke="#132e65" stroke-width="1.5"></path><path d="M512.75 674.63L659.2 685.49" stroke="#132e65" stroke-width="1.5"></path><path d="M512.75 674.63L495.83 844.18" stroke="#132e65" stroke-width="1.5"></path><path d="M512.75 674.63L701.52 802.77" stroke="#132e65" stroke-width="1.5"></path><path d="M495.83 844.18L495.83 844.18" stroke="#132e65" stroke-width="1.5"></path><path d="M495.83 844.18L403.05 660.01" stroke="#132e65" stroke-width="1.5"></path><path d="M495.83 844.18L701.52 802.77" stroke="#132e65" stroke-width="1.5"></path><path d="M495.83 844.18L659.2 685.49" stroke="#132e65" stroke-width="1.5"></path><path d="M495.83 844.18L212.99 793.27" stroke="#132e65" stroke-width="1.5"></path><path d="M673.1 408.85L673.1 408.85" stroke="#132e65" stroke-width="1.5"></path><path d="M673.1 408.85L819.01 512.17" stroke="#132e65" stroke-width="1.5"></path><path d="M673.1 408.85L659.2 685.49" stroke="#132e65" stroke-width="1.5"></path><path d="M659.2 685.49L659.2 685.49" stroke="#132e65" stroke-width="1.5"></path><path d="M659.2 685.49L701.52 802.77" stroke="#132e65" stroke-width="1.5"></path><path d="M659.2 685.49L799.96 704.88" stroke="#132e65" stroke-width="1.5"></path><path d="M701.52 802.77L701.52 802.77" stroke="#132e65" stroke-width="1.5"></path><path d="M701.52 802.77L799.96 704.88" stroke="#132e65" stroke-width="1.5"></path><path d="M701.52 802.77L853.79 823.16" stroke="#132e65" stroke-width="1.5"></path><path d="M819.01 512.17L819.01 512.17" stroke="#132e65" stroke-width="1.5"></path><path d="M819.01 512.17L954.45 647.2" stroke="#132e65" stroke-width="1.5"></path><path d="M819.01 512.17L799.96 704.88" stroke="#132e65" stroke-width="1.5"></path><path d="M819.01 512.17L659.2 685.49" stroke="#132e65" stroke-width="1.5"></path><path d="M819.01 512.17L529.06 497.15" stroke="#132e65" stroke-width="1.5"></path><path d="M799.96 704.88L799.96 704.88" stroke="#132e65" stroke-width="1.5"></path><path d="M799.96 704.88L853.79 823.16" stroke="#132e65" stroke-width="1.5"></path><path d="M799.96 704.88L954.45 647.2" stroke="#132e65" stroke-width="1.5"></path><path d="M853.79 823.16L853.79 823.16" stroke="#132e65" stroke-width="1.5"></path><path d="M853.79 823.16L992.23 853.29" stroke="#132e65" stroke-width="1.5"></path><path d="M853.79 823.16L954.45 647.2" stroke="#132e65" stroke-width="1.5"></path><path d="M999.18 224.35L999.18 224.35" stroke="#132e65" stroke-width="1.5"></path><path d="M999.18 224.35L1106.53 216.03" stroke="#132e65" stroke-width="1.5"></path><path d="M999.18 224.35L1134.23 368.75" stroke="#132e65" stroke-width="1.5"></path><path d="M954.45 647.2L954.45 647.2" stroke="#132e65" stroke-width="1.5"></path><path d="M954.45 647.2L1092.73 644.63" stroke="#132e65" stroke-width="1.5"></path><path d="M954.45 647.2L1108.17 553.02" stroke="#132e65" stroke-width="1.5"></path><path d="M954.45 647.2L992.23 853.29" stroke="#132e65" stroke-width="1.5"></path><path d="M992.23 853.29L992.23 853.29" stroke="#132e65" stroke-width="1.5"></path><path d="M992.23 853.29L1105.2 804.02" stroke="#132e65" stroke-width="1.5"></path><path d="M992.23 853.29L1092.73 644.63" stroke="#132e65" stroke-width="1.5"></path><path d="M1157.09 -50.85L1157.09 -50.85" stroke="#132e65" stroke-width="1.5"></path><path d="M1157.09 -50.85L1259.59 -94.01" stroke="#132e65" stroke-width="1.5"></path><path d="M1157.09 -50.85L1153.42 68.97" stroke="#132e65" stroke-width="1.5"></path><path d="M1157.09 -50.85L1282.22 41.03" stroke="#132e65" stroke-width="1.5"></path><path d="M1157.09 -50.85L1388.55 -94.27" stroke="#132e65" stroke-width="1.5"></path><path d="M1157.09 -50.85L1106.53 216.03" stroke="#132e65" stroke-width="1.5"></path><path d="M1157.09 -50.85L1419.28 48.21" stroke="#132e65" stroke-width="1.5"></path><path d="M1153.42 68.97L1153.42 68.97" stroke="#132e65" stroke-width="1.5"></path><path d="M1153.42 68.97L1282.22 41.03" stroke="#132e65" stroke-width="1.5"></path><path d="M1153.42 68.97L1106.53 216.03" stroke="#132e65" stroke-width="1.5"></path><path d="M1153.42 68.97L1242.18 223.12" stroke="#132e65" stroke-width="1.5"></path><path d="M1106.53 216.03L1106.53 216.03" stroke="#132e65" stroke-width="1.5"></path><path d="M1106.53 216.03L1242.18 223.12" stroke="#132e65" stroke-width="1.5"></path><path d="M1134.23 368.75L1134.23 368.75" stroke="#132e65" stroke-width="1.5"></path><path d="M1134.23 368.75L1106.53 216.03" stroke="#132e65" stroke-width="1.5"></path><path d="M1134.23 368.75L1298.23 404.17" stroke="#132e65" stroke-width="1.5"></path><path d="M1108.17 553.02L1108.17 553.02" stroke="#132e65" stroke-width="1.5"></path><path d="M1108.17 553.02L1092.73 644.63" stroke="#132e65" stroke-width="1.5"></path><path d="M1108.17 553.02L1134.23 368.75" stroke="#132e65" stroke-width="1.5"></path><path d="M1108.17 553.02L1297.82 699.24" stroke="#132e65" stroke-width="1.5"></path><path d="M1092.73 644.63L1092.73 644.63" stroke="#132e65" stroke-width="1.5"></path><path d="M1105.2 804.02L1105.2 804.02" stroke="#132e65" stroke-width="1.5"></path><path d="M1105.2 804.02L1092.73 644.63" stroke="#132e65" stroke-width="1.5"></path><path d="M1105.2 804.02L1282.7 793.53" stroke="#132e65" stroke-width="1.5"></path><path d="M1105.2 804.02L954.45 647.2" stroke="#132e65" stroke-width="1.5"></path><path d="M1259.59 -94.01L1259.59 -94.01" stroke="#132e65" stroke-width="1.5"></path><path d="M1259.59 -94.01L1388.55 -94.27" stroke="#132e65" stroke-width="1.5"></path><path d="M1282.22 41.03L1282.22 41.03" stroke="#132e65" stroke-width="1.5"></path><path d="M1282.22 41.03L1259.59 -94.01" stroke="#132e65" stroke-width="1.5"></path><path d="M1242.18 223.12L1242.18 223.12" stroke="#132e65" stroke-width="1.5"></path><path d="M1242.18 223.12L1134.23 368.75" stroke="#132e65" stroke-width="1.5"></path><path d="M1298.23 404.17L1298.23 404.17" stroke="#132e65" stroke-width="1.5"></path><path d="M1298.23 404.17L1406.9 373.38" stroke="#132e65" stroke-width="1.5"></path><path d="M1298.23 404.17L1242.18 223.12" stroke="#132e65" stroke-width="1.5"></path><path d="M1298.23 404.17L1435.4 539.33" stroke="#132e65" stroke-width="1.5"></path><path d="M1298.23 404.17L1448.31 233.11" stroke="#132e65" stroke-width="1.5"></path><path d="M1298.23 404.17L1108.17 553.02" stroke="#132e65" stroke-width="1.5"></path><path d="M1297.82 699.24L1297.82 699.24" stroke="#132e65" stroke-width="1.5"></path><path d="M1297.82 699.24L1282.7 793.53" stroke="#132e65" stroke-width="1.5"></path><path d="M1297.82 699.24L1401.8 686.75" stroke="#132e65" stroke-width="1.5"></path><path d="M1297.82 699.24L1406.22 840.38" stroke="#132e65" stroke-width="1.5"></path><path d="M1297.82 699.24L1435.4 539.33" stroke="#132e65" stroke-width="1.5"></path><path d="M1282.7 793.53L1282.7 793.53" stroke="#132e65" stroke-width="1.5"></path><path d="M1282.7 793.53L1406.22 840.38" stroke="#132e65" stroke-width="1.5"></path><path d="M1282.7 793.53L1401.8 686.75" stroke="#132e65" stroke-width="1.5"></path><path d="M1282.7 793.53L1092.73 644.63" stroke="#132e65" stroke-width="1.5"></path><path d="M1388.55 -94.27L1388.55 -94.27" stroke="#132e65" stroke-width="1.5"></path><path d="M1388.55 -94.27L1419.28 48.21" stroke="#132e65" stroke-width="1.5"></path><path d="M1388.55 -94.27L1282.22 41.03" stroke="#132e65" stroke-width="1.5"></path><path d="M1388.55 -94.27L1585.4 90.24" stroke="#132e65" stroke-width="1.5"></path><path d="M1419.28 48.21L1419.28 48.21" stroke="#132e65" stroke-width="1.5"></path><path d="M1419.28 48.21L1282.22 41.03" stroke="#132e65" stroke-width="1.5"></path><path d="M1448.31 233.11L1448.31 233.11" stroke="#132e65" stroke-width="1.5"></path><path d="M1448.31 233.11L1584.78 247.1" stroke="#132e65" stroke-width="1.5"></path><path d="M1448.31 233.11L1406.9 373.38" stroke="#132e65" stroke-width="1.5"></path><path d="M1448.31 233.11L1419.28 48.21" stroke="#132e65" stroke-width="1.5"></path><path d="M1448.31 233.11L1585.4 90.24" stroke="#132e65" stroke-width="1.5"></path><path d="M1406.9 373.38L1406.9 373.38" stroke="#132e65" stroke-width="1.5"></path><path d="M1406.9 373.38L1435.4 539.33" stroke="#132e65" stroke-width="1.5"></path><path d="M1435.4 539.33L1435.4 539.33" stroke="#132e65" stroke-width="1.5"></path><path d="M1435.4 539.33L1578.04 511.07" stroke="#132e65" stroke-width="1.5"></path><path d="M1435.4 539.33L1401.8 686.75" stroke="#132e65" stroke-width="1.5"></path><path d="M1401.8 686.75L1401.8 686.75" stroke="#132e65" stroke-width="1.5"></path><path d="M1401.8 686.75L1406.22 840.38" stroke="#132e65" stroke-width="1.5"></path><path d="M1406.22 840.38L1406.22 840.38" stroke="#132e65" stroke-width="1.5"></path><path d="M1585.4 90.24L1585.4 90.24" stroke="#132e65" stroke-width="1.5"></path><path d="M1585.4 90.24L1693.1 105.65" stroke="#132e65" stroke-width="1.5"></path><path d="M1585.4 90.24L1584.78 247.1" stroke="#132e65" stroke-width="1.5"></path><path d="M1585.4 90.24L1419.28 48.21" stroke="#132e65" stroke-width="1.5"></path><path d="M1584.78 247.1L1584.78 247.1" stroke="#132e65" stroke-width="1.5"></path><path d="M1584.78 247.1L1722.68 240.49" stroke="#132e65" stroke-width="1.5"></path><path d="M1577.01 407.43L1577.01 407.43" stroke="#132e65" stroke-width="1.5"></path><path d="M1577.01 407.43L1578.04 511.07" stroke="#132e65" stroke-width="1.5"></path><path d="M1577.01 407.43L1584.78 247.1" stroke="#132e65" stroke-width="1.5"></path><path d="M1577.01 407.43L1406.9 373.38" stroke="#132e65" stroke-width="1.5"></path><path d="M1577.01 407.43L1759.92 395.81" stroke="#132e65" stroke-width="1.5"></path><path d="M1577.01 407.43L1435.4 539.33" stroke="#132e65" stroke-width="1.5"></path><path d="M1578.04 511.07L1578.04 511.07" stroke="#132e65" stroke-width="1.5"></path><path d="M1578.04 511.07L1721.64 550.9" stroke="#132e65" stroke-width="1.5"></path><path d="M1578.04 511.07L1692.33 648.77" stroke="#132e65" stroke-width="1.5"></path><path d="M1578.04 511.07L1581.39 693.24" stroke="#132e65" stroke-width="1.5"></path><path d="M1581.39 693.24L1581.39 693.24" stroke="#132e65" stroke-width="1.5"></path><path d="M1581.39 693.24L1692.33 648.77" stroke="#132e65" stroke-width="1.5"></path><path d="M1581.39 693.24L1595.14 847.59" stroke="#132e65" stroke-width="1.5"></path><path d="M1581.39 693.24L1401.8 686.75" stroke="#132e65" stroke-width="1.5"></path><path d="M1581.39 693.24L1721.64 550.9" stroke="#132e65" stroke-width="1.5"></path><path d="M1595.14 847.59L1595.14 847.59" stroke="#132e65" stroke-width="1.5"></path><path d="M1595.14 847.59L1706.93 853.48" stroke="#132e65" stroke-width="1.5"></path><path d="M1595.14 847.59L1406.22 840.38" stroke="#132e65" stroke-width="1.5"></path><path d="M1595.14 847.59L1692.33 648.77" stroke="#132e65" stroke-width="1.5"></path><path d="M1725.72 -104.29L1725.72 -104.29" stroke="#132e65" stroke-width="1.5"></path><path d="M1725.72 -104.29L1693.1 105.65" stroke="#132e65" stroke-width="1.5"></path><path d="M1725.72 -104.29L1866.03 59.18" stroke="#132e65" stroke-width="1.5"></path><path d="M1725.72 -104.29L1585.4 90.24" stroke="#132e65" stroke-width="1.5"></path><path d="M1725.72 -104.29L1388.55 -94.27" stroke="#132e65" stroke-width="1.5"></path><path d="M1725.72 -104.29L1419.28 48.21" stroke="#132e65" stroke-width="1.5"></path><path d="M1693.1 105.65L1693.1 105.65" stroke="#132e65" stroke-width="1.5"></path><path d="M1693.1 105.65L1722.68 240.49" stroke="#132e65" stroke-width="1.5"></path><path d="M1693.1 105.65L1584.78 247.1" stroke="#132e65" stroke-width="1.5"></path><path d="M1693.1 105.65L1866.03 59.18" stroke="#132e65" stroke-width="1.5"></path><path d="M1693.1 105.65L1448.31 233.11" stroke="#132e65" stroke-width="1.5"></path><path d="M1722.68 240.49L1722.68 240.49" stroke="#132e65" stroke-width="1.5"></path><path d="M1722.68 240.49L1759.92 395.81" stroke="#132e65" stroke-width="1.5"></path><path d="M1722.68 240.49L1871.22 370.4" stroke="#132e65" stroke-width="1.5"></path><path d="M1722.68 240.49L1585.4 90.24" stroke="#132e65" stroke-width="1.5"></path><path d="M1722.68 240.49L1577.01 407.43" stroke="#132e65" stroke-width="1.5"></path><path d="M1759.92 395.81L1759.92 395.81" stroke="#132e65" stroke-width="1.5"></path><path d="M1759.92 395.81L1871.22 370.4" stroke="#132e65" stroke-width="1.5"></path><path d="M1759.92 395.81L1864.54 497.55" stroke="#132e65" stroke-width="1.5"></path><path d="M1759.92 395.81L1721.64 550.9" stroke="#132e65" stroke-width="1.5"></path><path d="M1721.64 550.9L1721.64 550.9" stroke="#132e65" stroke-width="1.5"></path><path d="M1721.64 550.9L1692.33 648.77" stroke="#132e65" stroke-width="1.5"></path><path d="M1721.64 550.9L1864.54 497.55" stroke="#132e65" stroke-width="1.5"></path><path d="M1692.33 648.77L1692.33 648.77" stroke="#132e65" stroke-width="1.5"></path><path d="M1706.93 853.48L1706.93 853.48" stroke="#132e65" stroke-width="1.5"></path><path d="M1706.93 853.48L1907.39 843.33" stroke="#132e65" stroke-width="1.5"></path><path d="M1706.93 853.48L1581.39 693.24" stroke="#132e65" stroke-width="1.5"></path><path d="M1706.93 853.48L1692.33 648.77" stroke="#132e65" stroke-width="1.5"></path><path d="M1866.03 59.18L1866.03 59.18" stroke="#132e65" stroke-width="1.5"></path><path d="M1866.03 59.18L1722.68 240.49" stroke="#132e65" stroke-width="1.5"></path><path d="M1866.03 59.18L1585.4 90.24" stroke="#132e65" stroke-width="1.5"></path><path d="M1866.03 59.18L1871.22 370.4" stroke="#132e65" stroke-width="1.5"></path><path d="M1866.03 59.18L1584.78 247.1" stroke="#132e65" stroke-width="1.5"></path><path d="M1871.22 370.4L1871.22 370.4" stroke="#132e65" stroke-width="1.5"></path><path d="M1871.22 370.4L1864.54 497.55" stroke="#132e65" stroke-width="1.5"></path><path d="M1864.54 497.55L1864.54 497.55" stroke="#132e65" stroke-width="1.5"></path><path d="M1864.54 497.55L1898.55 677.44" stroke="#132e65" stroke-width="1.5"></path><path d="M1898.55 677.44L1898.55 677.44" stroke="#132e65" stroke-width="1.5"></path><path d="M1898.55 677.44L1907.39 843.33" stroke="#132e65" stroke-width="1.5"></path><path d="M1907.39 843.33L1907.39 843.33" stroke="#132e65" stroke-width="1.5"></path><path d="M1907.39 843.33L1692.33 648.77" stroke="#132e65" stroke-width="1.5"></path><path d="M1907.39 843.33L1595.14 847.59" stroke="#132e65" stroke-width="1.5"></path><circle r="5" cx="-58.17" cy="536.06" fill="#132e65"></circle><circle r="5" cx="-94.54" cy="708.09" fill="#132e65"></circle><circle r="5" cx="-70.88" cy="821.16" fill="#132e65"></circle><circle r="5" cx="65.42" cy="521.82" fill="#132e65"></circle><circle r="5" cx="52.16" cy="706.95" fill="#132e65"></circle><circle r="5" cx="49.59" cy="789.78" fill="#132e65"></circle><circle r="5" cx="235.62" cy="530.81" fill="#132e65"></circle><circle r="5" cx="204.87" cy="691.38" fill="#132e65"></circle><circle r="5" cx="212.99" cy="793.27" fill="#132e65"></circle><circle r="5" cx="366.23" cy="501.94" fill="#132e65"></circle><circle r="5" cx="403.05" cy="660.01" fill="#132e65"></circle><circle r="5" cx="353.61" cy="858.82" fill="#132e65"></circle><circle r="5" cx="529.06" cy="497.15" fill="#132e65"></circle><circle r="5" cx="512.75" cy="674.63" fill="#132e65"></circle><circle r="5" cx="495.83" cy="844.18" fill="#132e65"></circle><circle r="5" cx="673.1" cy="408.85" fill="#132e65"></circle><circle r="5" cx="659.2" cy="685.49" fill="#132e65"></circle><circle r="5" cx="701.52" cy="802.77" fill="#132e65"></circle><circle r="5" cx="819.01" cy="512.17" fill="#132e65"></circle><circle r="5" cx="799.96" cy="704.88" fill="#132e65"></circle><circle r="5" cx="853.79" cy="823.16" fill="#132e65"></circle><circle r="5" cx="999.18" cy="224.35" fill="#132e65"></circle><circle r="5" cx="954.45" cy="647.2" fill="#132e65"></circle><circle r="5" cx="992.23" cy="853.29" fill="#132e65"></circle><circle r="5" cx="1157.09" cy="-50.85" fill="#132e65"></circle><circle r="5" cx="1153.42" cy="68.97" fill="#132e65"></circle><circle r="5" cx="1106.53" cy="216.03" fill="#132e65"></circle><circle r="5" cx="1134.23" cy="368.75" fill="#132e65"></circle><circle r="5" cx="1108.17" cy="553.02" fill="#132e65"></circle><circle r="5" cx="1092.73" cy="644.63" fill="#132e65"></circle><circle r="5" cx="1105.2" cy="804.02" fill="#132e65"></circle><circle r="5" cx="1259.59" cy="-94.01" fill="#132e65"></circle><circle r="5" cx="1282.22" cy="41.03" fill="#132e65"></circle><circle r="5" cx="1242.18" cy="223.12" fill="#132e65"></circle><circle r="5" cx="1298.23" cy="404.17" fill="#132e65"></circle><circle r="5" cx="1297.82" cy="699.24" fill="#132e65"></circle><circle r="5" cx="1282.7" cy="793.53" fill="#132e65"></circle><circle r="5" cx="1388.55" cy="-94.27" fill="#132e65"></circle><circle r="5" cx="1419.28" cy="48.21" fill="#132e65"></circle><circle r="5" cx="1448.31" cy="233.11" fill="#132e65"></circle><circle r="5" cx="1406.9" cy="373.38" fill="#132e65"></circle><circle r="5" cx="1435.4" cy="539.33" fill="#132e65"></circle><circle r="5" cx="1401.8" cy="686.75" fill="#132e65"></circle><circle r="5" cx="1406.22" cy="840.38" fill="#132e65"></circle><circle r="5" cx="1585.4" cy="90.24" fill="#132e65"></circle><circle r="5" cx="1584.78" cy="247.1" fill="#132e65"></circle><circle r="5" cx="1577.01" cy="407.43" fill="#132e65"></circle><circle r="5" cx="1578.04" cy="511.07" fill="#132e65"></circle><circle r="5" cx="1581.39" cy="693.24" fill="#132e65"></circle><circle r="5" cx="1595.14" cy="847.59" fill="#132e65"></circle><circle r="5" cx="1725.72" cy="-104.29" fill="#132e65"></circle><circle r="5" cx="1693.1" cy="105.65" fill="#132e65"></circle><circle r="5" cx="1722.68" cy="240.49" fill="#132e65"></circle><circle r="5" cx="1759.92" cy="395.81" fill="#132e65"></circle><circle r="5" cx="1721.64" cy="550.9" fill="#132e65"></circle><circle r="5" cx="1692.33" cy="648.77" fill="#132e65"></circle><circle r="5" cx="1706.93" cy="853.48" fill="#132e65"></circle><circle r="5" cx="1866.03" cy="59.18" fill="#132e65"></circle><circle r="5" cx="1871.22" cy="370.4" fill="#132e65"></circle><circle r="5" cx="1864.54" cy="497.55" fill="#132e65"></circle><circle r="5" cx="1898.55" cy="677.44" fill="#132e65"></circle><circle r="5" cx="1907.39" cy="843.33" fill="#132e65"></circle><path d="M371.13 660.21L371.13 660.21" stroke="hsl(228.5, 77.2%, 51.5%)" stroke-width="1.5"></path><path d="M371.13 660.21L409.6 801.53" stroke="hsl(228.5, 77.2%, 51.5%)" stroke-width="1.5"></path><path d="M371.13 660.21L197.58 688.93" stroke="hsl(228.5, 77.2%, 51.5%)" stroke-width="1.5"></path><path d="M371.13 660.21L213.8 796.6" stroke="hsl(228.5, 77.2%, 51.5%)" stroke-width="1.5"></path><path d="M409.6 801.53L409.6 801.53" stroke="hsl(228.5, 77.2%, 51.5%)" stroke-width="1.5"></path><path d="M409.6 801.53L555.3 852.43" stroke="hsl(228.5, 77.2%, 51.5%)" stroke-width="1.5"></path><path d="M409.6 801.53L213.8 796.6" stroke="hsl(228.5, 77.2%, 51.5%)" stroke-width="1.5"></path><path d="M409.6 801.53L637.56 834.19" stroke="hsl(228.5, 77.2%, 51.5%)" stroke-width="1.5"></path><path d="M409.6 801.53L197.58 688.93" stroke="hsl(228.5, 77.2%, 51.5%)" stroke-width="1.5"></path><path d="M409.6 801.53L702.11 708.24" stroke="hsl(228.5, 77.2%, 51.5%)" stroke-width="1.5"></path><path d="M985.36 679.94L985.36 679.94" stroke="hsl(228.5, 77.2%, 51.5%)" stroke-width="1.5"></path><path d="M985.36 679.94L1099.18 669.59" stroke="hsl(228.5, 77.2%, 51.5%)" stroke-width="1.5"></path><path d="M985.36 679.94L808.42 697.11" stroke="hsl(228.5, 77.2%, 51.5%)" stroke-width="1.5"></path><path d="M985.36 679.94L969.45 491.07" stroke="hsl(228.5, 77.2%, 51.5%)" stroke-width="1.5"></path><path d="M985.36 679.94L858.61 535.24" stroke="hsl(228.5, 77.2%, 51.5%)" stroke-width="1.5"></path><path d="M985.36 679.94L860.62 840.65" stroke="hsl(228.5, 77.2%, 51.5%)" stroke-width="1.5"></path><path d="M985.36 679.94L1124.84 828.63" stroke="hsl(228.5, 77.2%, 51.5%)" stroke-width="1.5"></path><path d="M1099.18 669.59L1099.18 669.59" stroke="hsl(228.5, 77.2%, 51.5%)" stroke-width="1.5"></path><path d="M1099.18 669.59L1255.21 645.04" stroke="hsl(228.5, 77.2%, 51.5%)" stroke-width="1.5"></path><path d="M1099.18 669.59L1124.84 828.63" stroke="hsl(228.5, 77.2%, 51.5%)" stroke-width="1.5"></path><path d="M1099.18 669.59L1248.25 561.65" stroke="hsl(228.5, 77.2%, 51.5%)" stroke-width="1.5"></path><path d="M1099.18 669.59L969.45 491.07" stroke="hsl(228.5, 77.2%, 51.5%)" stroke-width="1.5"></path><path d="M1099.18 669.59L1285.57 797.97" stroke="hsl(228.5, 77.2%, 51.5%)" stroke-width="1.5"></path><path d="M1255.21 645.04L1255.21 645.04" stroke="hsl(228.5, 77.2%, 51.5%)" stroke-width="1.5"></path><path d="M1255.21 645.04L1248.25 561.65" stroke="hsl(228.5, 77.2%, 51.5%)" stroke-width="1.5"></path><path d="M1255.21 645.04L1285.57 797.97" stroke="hsl(228.5, 77.2%, 51.5%)" stroke-width="1.5"></path><path d="M1426.35 229.02L1426.35 229.02" stroke="hsl(228.5, 77.2%, 51.5%)" stroke-width="1.5"></path><path d="M1426.35 229.02L1430.86 353.76" stroke="hsl(228.5, 77.2%, 51.5%)" stroke-width="1.5"></path><path d="M1426.35 229.02L1577.35 256.72" stroke="hsl(228.5, 77.2%, 51.5%)" stroke-width="1.5"></path><path d="M1426.35 229.02L1436.51 54.61" stroke="hsl(228.5, 77.2%, 51.5%)" stroke-width="1.5"></path><path d="M1426.35 229.02L1298.08 363.51" stroke="hsl(228.5, 77.2%, 51.5%)" stroke-width="1.5"></path><path d="M1426.35 229.02L1538.16 53.86" stroke="hsl(228.5, 77.2%, 51.5%)" stroke-width="1.5"></path><path d="M1426.35 229.02L1590.52 391.43" stroke="hsl(228.5, 77.2%, 51.5%)" stroke-width="1.5"></path><path d="M1577.35 256.72L1577.35 256.72" stroke="hsl(228.5, 77.2%, 51.5%)" stroke-width="1.5"></path><path d="M1577.35 256.72L1590.52 391.43" stroke="hsl(228.5, 77.2%, 51.5%)" stroke-width="1.5"></path><path d="M1577.35 256.72L1708.74 199.77" stroke="hsl(228.5, 77.2%, 51.5%)" stroke-width="1.5"></path><path d="M1585.19 540.4L1585.19 540.4" stroke="hsl(228.5, 77.2%, 51.5%)" stroke-width="1.5"></path><path d="M1585.19 540.4L1560.68 653.74" stroke="hsl(228.5, 77.2%, 51.5%)" stroke-width="1.5"></path><path d="M1585.19 540.4L1439.37 511.19" stroke="hsl(228.5, 77.2%, 51.5%)" stroke-width="1.5"></path><path d="M1585.19 540.4L1590.52 391.43" stroke="hsl(228.5, 77.2%, 51.5%)" stroke-width="1.5"></path><path d="M1725.26 -38.4L1725.26 -38.4" stroke="hsl(228.5, 77.2%, 51.5%)" stroke-width="1.5"></path><path d="M1725.26 -38.4L1732.95 102.69" stroke="hsl(228.5, 77.2%, 51.5%)" stroke-width="1.5"></path><path d="M1725.26 -38.4L1583.11 -79.28" stroke="hsl(228.5, 77.2%, 51.5%)" stroke-width="1.5"></path><path d="M1725.26 -38.4L1895.14 -39.79" stroke="hsl(228.5, 77.2%, 51.5%)" stroke-width="1.5"></path><path d="M1725.26 -38.4L1538.16 53.86" stroke="hsl(228.5, 77.2%, 51.5%)" stroke-width="1.5"></path><path d="M1699.22 698.8L1699.22 698.8" stroke="hsl(228.5, 77.2%, 51.5%)" stroke-width="1.5"></path><path d="M1699.22 698.8L1757.82 793.4" stroke="hsl(228.5, 77.2%, 51.5%)" stroke-width="1.5"></path><path d="M1699.22 698.8L1560.68 653.74" stroke="hsl(228.5, 77.2%, 51.5%)" stroke-width="1.5"></path><path d="M1699.22 698.8L1880.29 703.33" stroke="hsl(228.5, 77.2%, 51.5%)" stroke-width="1.5"></path><path d="M1699.22 698.8L1585.19 540.4" stroke="hsl(228.5, 77.2%, 51.5%)" stroke-width="1.5"></path><path d="M1699.22 698.8L1859.75 543.61" stroke="hsl(228.5, 77.2%, 51.5%)" stroke-width="1.5"></path><path d="M1895.14 -39.79L1895.14 -39.79" stroke="hsl(228.5, 77.2%, 51.5%)" stroke-width="1.5"></path><path d="M1895.14 -39.79L1732.95 102.69" stroke="hsl(228.5, 77.2%, 51.5%)" stroke-width="1.5"></path><path d="M1895.14 -39.79L1883.22 251.65" stroke="hsl(228.5, 77.2%, 51.5%)" stroke-width="1.5"></path><path d="M1880.72 854.69L1880.72 854.69" stroke="hsl(228.5, 77.2%, 51.5%)" stroke-width="1.5"></path><path d="M1880.72 854.69L1757.82 793.4" stroke="hsl(228.5, 77.2%, 51.5%)" stroke-width="1.5"></path><path d="M1880.72 854.69L1880.29 703.33" stroke="hsl(228.5, 77.2%, 51.5%)" stroke-width="1.5"></path><path d="M1880.72 854.69L1699.22 698.8" stroke="hsl(228.5, 77.2%, 51.5%)" stroke-width="1.5"></path><path d="M1880.72 854.69L1859.75 543.61" stroke="hsl(228.5, 77.2%, 51.5%)" stroke-width="1.5"></path><path d="M1880.72 854.69L1560.68 653.74" stroke="hsl(228.5, 77.2%, 51.5%)" stroke-width="1.5"></path><path d="M-99.86 683.49L-99.86 683.49" stroke="hsl(228.5, 77.2%, 51.5%)" stroke-width="1.5"></path><path d="M-99.86 683.49L-108.07 805.62" stroke="hsl(228.5, 77.2%, 51.5%)" stroke-width="1.5"></path><path d="M-99.86 683.49L38.68 703.63" stroke="hsl(228.5, 77.2%, 51.5%)" stroke-width="1.5"></path><path d="M-99.86 683.49L56.96 857.79" stroke="hsl(228.5, 77.2%, 51.5%)" stroke-width="1.5"></path><path d="M-99.86 683.49L197.58 688.93" stroke="hsl(228.5, 77.2%, 51.5%)" stroke-width="1.5"></path><path d="M-99.86 683.49L213.8 796.6" stroke="hsl(228.5, 77.2%, 51.5%)" stroke-width="1.5"></path><path d="M-99.86 683.49L371.13 660.21" stroke="hsl(228.5, 77.2%, 51.5%)" stroke-width="1.5"></path><path d="M-108.07 805.62L-108.07 805.62" stroke="hsl(228.5, 77.2%, 51.5%)" stroke-width="1.5"></path><path d="M-108.07 805.62L56.96 857.79" stroke="hsl(228.5, 77.2%, 51.5%)" stroke-width="1.5"></path><path d="M-108.07 805.62L38.68 703.63" stroke="hsl(228.5, 77.2%, 51.5%)" stroke-width="1.5"></path><path d="M-108.07 805.62L213.8 796.6" stroke="hsl(228.5, 77.2%, 51.5%)" stroke-width="1.5"></path><path d="M38.68 703.63L38.68 703.63" stroke="hsl(228.5, 77.2%, 51.5%)" stroke-width="1.5"></path><path d="M38.68 703.63L56.96 857.79" stroke="hsl(228.5, 77.2%, 51.5%)" stroke-width="1.5"></path><path d="M56.96 857.79L56.96 857.79" stroke="hsl(228.5, 77.2%, 51.5%)" stroke-width="1.5"></path><path d="M56.96 857.79L213.8 796.6" stroke="hsl(228.5, 77.2%, 51.5%)" stroke-width="1.5"></path><path d="M197.58 688.93L197.58 688.93" stroke="hsl(228.5, 77.2%, 51.5%)" stroke-width="1.5"></path><path d="M197.58 688.93L213.8 796.6" stroke="hsl(228.5, 77.2%, 51.5%)" stroke-width="1.5"></path><path d="M197.58 688.93L38.68 703.63" stroke="hsl(228.5, 77.2%, 51.5%)" stroke-width="1.5"></path><path d="M213.8 796.6L213.8 796.6" stroke="hsl(228.5, 77.2%, 51.5%)" stroke-width="1.5"></path><path d="M555.3 852.43L555.3 852.43" stroke="hsl(228.5, 77.2%, 51.5%)" stroke-width="1.5"></path><path d="M555.3 852.43L637.56 834.19" stroke="hsl(228.5, 77.2%, 51.5%)" stroke-width="1.5"></path><path d="M555.3 852.43L702.11 708.24" stroke="hsl(228.5, 77.2%, 51.5%)" stroke-width="1.5"></path><path d="M675.96 530.5L675.96 530.5" stroke="hsl(228.5, 77.2%, 51.5%)" stroke-width="1.5"></path><path d="M675.96 530.5L702.11 708.24" stroke="hsl(228.5, 77.2%, 51.5%)" stroke-width="1.5"></path><path d="M675.96 530.5L858.61 535.24" stroke="hsl(228.5, 77.2%, 51.5%)" stroke-width="1.5"></path><path d="M675.96 530.5L808.42 697.11" stroke="hsl(228.5, 77.2%, 51.5%)" stroke-width="1.5"></path><path d="M675.96 530.5L969.45 491.07" stroke="hsl(228.5, 77.2%, 51.5%)" stroke-width="1.5"></path><path d="M675.96 530.5L637.56 834.19" stroke="hsl(228.5, 77.2%, 51.5%)" stroke-width="1.5"></path><path d="M702.11 708.24L702.11 708.24" stroke="hsl(228.5, 77.2%, 51.5%)" stroke-width="1.5"></path><path d="M702.11 708.24L808.42 697.11" stroke="hsl(228.5, 77.2%, 51.5%)" stroke-width="1.5"></path><path d="M702.11 708.24L637.56 834.19" stroke="hsl(228.5, 77.2%, 51.5%)" stroke-width="1.5"></path><path d="M637.56 834.19L637.56 834.19" stroke="hsl(228.5, 77.2%, 51.5%)" stroke-width="1.5"></path><path d="M858.61 535.24L858.61 535.24" stroke="hsl(228.5, 77.2%, 51.5%)" stroke-width="1.5"></path><path d="M858.61 535.24L969.45 491.07" stroke="hsl(228.5, 77.2%, 51.5%)" stroke-width="1.5"></path><path d="M858.61 535.24L808.42 697.11" stroke="hsl(228.5, 77.2%, 51.5%)" stroke-width="1.5"></path><path d="M808.42 697.11L808.42 697.11" stroke="hsl(228.5, 77.2%, 51.5%)" stroke-width="1.5"></path><path d="M808.42 697.11L860.62 840.65" stroke="hsl(228.5, 77.2%, 51.5%)" stroke-width="1.5"></path><path d="M860.62 840.65L860.62 840.65" stroke="hsl(228.5, 77.2%, 51.5%)" stroke-width="1.5"></path><path d="M969.45 491.07L969.45 491.07" stroke="hsl(228.5, 77.2%, 51.5%)" stroke-width="1.5"></path><path d="M969.45 491.07L808.42 697.11" stroke="hsl(228.5, 77.2%, 51.5%)" stroke-width="1.5"></path><path d="M969.45 491.07L1248.25 561.65" stroke="hsl(228.5, 77.2%, 51.5%)" stroke-width="1.5"></path><path d="M1124.84 828.63L1124.84 828.63" stroke="hsl(228.5, 77.2%, 51.5%)" stroke-width="1.5"></path><path d="M1124.84 828.63L1285.57 797.97" stroke="hsl(228.5, 77.2%, 51.5%)" stroke-width="1.5"></path><path d="M1124.84 828.63L1255.21 645.04" stroke="hsl(228.5, 77.2%, 51.5%)" stroke-width="1.5"></path><path d="M1124.84 828.63L860.62 840.65" stroke="hsl(228.5, 77.2%, 51.5%)" stroke-width="1.5"></path><path d="M1298.08 363.51L1298.08 363.51" stroke="hsl(228.5, 77.2%, 51.5%)" stroke-width="1.5"></path><path d="M1298.08 363.51L1430.86 353.76" stroke="hsl(228.5, 77.2%, 51.5%)" stroke-width="1.5"></path><path d="M1248.25 561.65L1248.25 561.65" stroke="hsl(228.5, 77.2%, 51.5%)" stroke-width="1.5"></path><path d="M1285.57 797.97L1285.57 797.97" stroke="hsl(228.5, 77.2%, 51.5%)" stroke-width="1.5"></path><path d="M1285.57 797.97L1406.56 849.11" stroke="hsl(228.5, 77.2%, 51.5%)" stroke-width="1.5"></path><path d="M1436.51 54.61L1436.51 54.61" stroke="hsl(228.5, 77.2%, 51.5%)" stroke-width="1.5"></path><path d="M1436.51 54.61L1538.16 53.86" stroke="hsl(228.5, 77.2%, 51.5%)" stroke-width="1.5"></path><path d="M1430.86 353.76L1430.86 353.76" stroke="hsl(228.5, 77.2%, 51.5%)" stroke-width="1.5"></path><path d="M1430.86 353.76L1439.37 511.19" stroke="hsl(228.5, 77.2%, 51.5%)" stroke-width="1.5"></path><path d="M1430.86 353.76L1590.52 391.43" stroke="hsl(228.5, 77.2%, 51.5%)" stroke-width="1.5"></path><path d="M1439.37 511.19L1439.37 511.19" stroke="hsl(228.5, 77.2%, 51.5%)" stroke-width="1.5"></path><path d="M1439.37 511.19L1560.68 653.74" stroke="hsl(228.5, 77.2%, 51.5%)" stroke-width="1.5"></path><path d="M1439.37 511.19L1590.52 391.43" stroke="hsl(228.5, 77.2%, 51.5%)" stroke-width="1.5"></path><path d="M1406.56 849.11L1406.56 849.11" stroke="hsl(228.5, 77.2%, 51.5%)" stroke-width="1.5"></path><path d="M1406.56 849.11L1560.68 653.74" stroke="hsl(228.5, 77.2%, 51.5%)" stroke-width="1.5"></path><path d="M1406.56 849.11L1255.21 645.04" stroke="hsl(228.5, 77.2%, 51.5%)" stroke-width="1.5"></path><path d="M1583.11 -79.28L1583.11 -79.28" stroke="hsl(228.5, 77.2%, 51.5%)" stroke-width="1.5"></path><path d="M1583.11 -79.28L1538.16 53.86" stroke="hsl(228.5, 77.2%, 51.5%)" stroke-width="1.5"></path><path d="M1538.16 53.86L1538.16 53.86" stroke="hsl(228.5, 77.2%, 51.5%)" stroke-width="1.5"></path><path d="M1538.16 53.86L1732.95 102.69" stroke="hsl(228.5, 77.2%, 51.5%)" stroke-width="1.5"></path><path d="M1538.16 53.86L1577.35 256.72" stroke="hsl(228.5, 77.2%, 51.5%)" stroke-width="1.5"></path><path d="M1590.52 391.43L1590.52 391.43" stroke="hsl(228.5, 77.2%, 51.5%)" stroke-width="1.5"></path><path d="M1590.52 391.43L1739.22 353.26" stroke="hsl(228.5, 77.2%, 51.5%)" stroke-width="1.5"></path><path d="M1560.68 653.74L1560.68 653.74" stroke="hsl(228.5, 77.2%, 51.5%)" stroke-width="1.5"></path><path d="M1560.68 653.74L1757.82 793.4" stroke="hsl(228.5, 77.2%, 51.5%)" stroke-width="1.5"></path><path d="M1732.95 102.69L1732.95 102.69" stroke="hsl(228.5, 77.2%, 51.5%)" stroke-width="1.5"></path><path d="M1732.95 102.69L1708.74 199.77" stroke="hsl(228.5, 77.2%, 51.5%)" stroke-width="1.5"></path><path d="M1732.95 102.69L1883.22 251.65" stroke="hsl(228.5, 77.2%, 51.5%)" stroke-width="1.5"></path><path d="M1732.95 102.69L1577.35 256.72" stroke="hsl(228.5, 77.2%, 51.5%)" stroke-width="1.5"></path><path d="M1708.74 199.77L1708.74 199.77" stroke="hsl(228.5, 77.2%, 51.5%)" stroke-width="1.5"></path><path d="M1708.74 199.77L1739.22 353.26" stroke="hsl(228.5, 77.2%, 51.5%)" stroke-width="1.5"></path><path d="M1708.74 199.77L1883.22 251.65" stroke="hsl(228.5, 77.2%, 51.5%)" stroke-width="1.5"></path><path d="M1739.22 353.26L1739.22 353.26" stroke="hsl(228.5, 77.2%, 51.5%)" stroke-width="1.5"></path><path d="M1739.22 353.26L1891.14 357.33" stroke="hsl(228.5, 77.2%, 51.5%)" stroke-width="1.5"></path><path d="M1739.22 353.26L1883.22 251.65" stroke="hsl(228.5, 77.2%, 51.5%)" stroke-width="1.5"></path><path d="M1739.22 353.26L1577.35 256.72" stroke="hsl(228.5, 77.2%, 51.5%)" stroke-width="1.5"></path><path d="M1739.22 353.26L1859.75 543.61" stroke="hsl(228.5, 77.2%, 51.5%)" stroke-width="1.5"></path><path d="M1757.82 793.4L1757.82 793.4" stroke="hsl(228.5, 77.2%, 51.5%)" stroke-width="1.5"></path><path d="M1757.82 793.4L1880.29 703.33" stroke="hsl(228.5, 77.2%, 51.5%)" stroke-width="1.5"></path><path d="M1883.22 251.65L1883.22 251.65" stroke="hsl(228.5, 77.2%, 51.5%)" stroke-width="1.5"></path><path d="M1883.22 251.65L1891.14 357.33" stroke="hsl(228.5, 77.2%, 51.5%)" stroke-width="1.5"></path><path d="M1891.14 357.33L1891.14 357.33" stroke="hsl(228.5, 77.2%, 51.5%)" stroke-width="1.5"></path><path d="M1891.14 357.33L1859.75 543.61" stroke="hsl(228.5, 77.2%, 51.5%)" stroke-width="1.5"></path><path d="M1891.14 357.33L1708.74 199.77" stroke="hsl(228.5, 77.2%, 51.5%)" stroke-width="1.5"></path><path d="M1859.75 543.61L1859.75 543.61" stroke="hsl(228.5, 77.2%, 51.5%)" stroke-width="1.5"></path><path d="M1859.75 543.61L1880.29 703.33" stroke="hsl(228.5, 77.2%, 51.5%)" stroke-width="1.5"></path><path d="M1880.29 703.33L1880.29 703.33" stroke="hsl(228.5, 77.2%, 51.5%)" stroke-width="1.5"></path><circle r="25" cx="371.13" cy="660.21" fill="url(&quot;#SvgjsRadialGradient1061&quot;)"></circle><circle r="25" cx="409.6" cy="801.53" fill="url(&quot;#SvgjsRadialGradient1061&quot;)"></circle><circle r="25" cx="985.36" cy="679.94" fill="url(&quot;#SvgjsRadialGradient1061&quot;)"></circle><circle r="25" cx="1099.18" cy="669.59" fill="url(&quot;#SvgjsRadialGradient1061&quot;)"></circle><circle r="25" cx="1255.21" cy="645.04" fill="url(&quot;#SvgjsRadialGradient1061&quot;)"></circle><circle r="25" cx="1426.35" cy="229.02" fill="url(&quot;#SvgjsRadialGradient1061&quot;)"></circle><circle r="25" cx="1577.35" cy="256.72" fill="url(&quot;#SvgjsRadialGradient1061&quot;)"></circle><circle r="25" cx="1585.19" cy="540.4" fill="url(&quot;#SvgjsRadialGradient1061&quot;)"></circle><circle r="25" cx="1725.26" cy="-38.4" fill="url(&quot;#SvgjsRadialGradient1061&quot;)"></circle><circle r="25" cx="1699.22" cy="698.8" fill="url(&quot;#SvgjsRadialGradient1061&quot;)"></circle><circle r="25" cx="1895.14" cy="-39.79" fill="url(&quot;#SvgjsRadialGradient1061&quot;)"></circle><circle r="25" cx="1880.72" cy="854.69" fill="url(&quot;#SvgjsRadialGradient1061&quot;)"></circle><circle r="5" cx="-99.86" cy="683.49" fill="#8b9ad9"></circle><circle r="5" cx="-108.07" cy="805.62" fill="#8b9ad9"></circle><circle r="5" cx="38.68" cy="703.63" fill="#8b9ad9"></circle><circle r="5" cx="56.96" cy="857.79" fill="#8b9ad9"></circle><circle r="5" cx="197.58" cy="688.93" fill="#8b9ad9"></circle><circle r="5" cx="213.8" cy="796.6" fill="#8b9ad9"></circle><circle r="5" cx="555.3" cy="852.43" fill="#8b9ad9"></circle><circle r="5" cx="675.96" cy="530.5" fill="#8b9ad9"></circle><circle r="5" cx="702.11" cy="708.24" fill="#8b9ad9"></circle><circle r="5" cx="637.56" cy="834.19" fill="#8b9ad9"></circle><circle r="5" cx="858.61" cy="535.24" fill="#8b9ad9"></circle><circle r="5" cx="808.42" cy="697.11" fill="#8b9ad9"></circle><circle r="5" cx="860.62" cy="840.65" fill="#8b9ad9"></circle><circle r="5" cx="969.45" cy="491.07" fill="#8b9ad9"></circle><circle r="5" cx="1124.84" cy="828.63" fill="#8b9ad9"></circle><circle r="5" cx="1298.08" cy="363.51" fill="#8b9ad9"></circle><circle r="5" cx="1248.25" cy="561.65" fill="#8b9ad9"></circle><circle r="5" cx="1285.57" cy="797.97" fill="#8b9ad9"></circle><circle r="5" cx="1436.51" cy="54.61" fill="#8b9ad9"></circle><circle r="5" cx="1430.86" cy="353.76" fill="#8b9ad9"></circle><circle r="5" cx="1439.37" cy="511.19" fill="#8b9ad9"></circle><circle r="5" cx="1406.56" cy="849.11" fill="#8b9ad9"></circle><circle r="5" cx="1583.11" cy="-79.28" fill="#8b9ad9"></circle><circle r="5" cx="1538.16" cy="53.86" fill="#8b9ad9"></circle><circle r="5" cx="1590.52" cy="391.43" fill="#8b9ad9"></circle><circle r="5" cx="1560.68" cy="653.74" fill="#8b9ad9"></circle><circle r="5" cx="1732.95" cy="102.69" fill="#8b9ad9"></circle><circle r="5" cx="1708.74" cy="199.77" fill="#8b9ad9"></circle><circle r="5" cx="1739.22" cy="353.26" fill="#8b9ad9"></circle><circle r="5" cx="1757.82" cy="793.4" fill="#8b9ad9"></circle><circle r="5" cx="1883.22" cy="251.65" fill="#8b9ad9"></circle><circle r="5" cx="1891.14" cy="357.33" fill="#8b9ad9"></circle><circle r="5" cx="1859.75" cy="543.61" fill="#8b9ad9"></circle><circle r="5" cx="1880.29" cy="703.33" fill="#8b9ad9"></circle></g><defs><mask id="SvgjsMask1060"><rect width="1800" height="750" fill="#ffffff"></rect></mask><radialGradient id="SvgjsRadialGradient1061"><stop stop-color="#ffffff" offset="0.1"></stop><stop stop-color="#1735b3" offset="0.2"></stop><stop stop-color="rgba(23, 53, 179, 0)" offset="1"></stop></radialGradient></defs></svg>